<?xml version="1.0" encoding="utf-8"?>
<!-- Generator: Adobe Illustrator 22.0.0, SVG Export Plug-In . SVG Version: 6.00 Build 0)  -->
<svg version="1.1" id="Layer_1" xmlns="http://www.w3.org/2000/svg" xmlns:xlink="http://www.w3.org/1999/xlink" x="0px" y="0px"
	 viewBox="0 0 150 200" style="enable-background:new 0 0 150 200;" xml:space="preserve">
<style type="text/css">
	.st0{fill:#5D5C61;}
	.st1{fill:#39A0ED;}
	.st2{fill:#FFFFFF;}
	.st3{fill:#97D2FB;}
</style>
<polygon class="st0" points="104,173 101,173 101,173 "/>
<path class="st1" d="M146,185.9c0,4.5-3.6,8.1-8.1,8.1H12.1c-4.5,0-8.1-3.6-8.1-8.1V31.1c0-4.5,3.6-8.1,8.1-8.1h125.8
	c4.5,0,8.1,3.6,8.1,8.1L146,185.9L146,185.9z"/>
<path class="st1" d="M17.5,171h127.9c0.4-1,0.6-2,0.6-3.1V13.1c0-4.5-3.6-8.1-8.1-8.1H12.1C7.6,5,4,8.6,4,13.1v154.8
	c0,4.5,3.6,8.1,8.1,8.1h5.4V171z"/>
<path class="st0" d="M19,5h-6.9C7.6,5,4,8.6,4,13.1v172.8c0,4.5,3.6,8.1,8.1,8.1H19V5z"/>
<path class="st2" d="M146,171H17.9c-4.9,0-8.9,3.8-8.9,8.5s4,8.5,8.9,8.5H146V171z"/>
<path class="st3" d="M122.5,138h-83c-2.5,0-4.5-2-4.5-4.5l0,0c0-2.5,2-4.5,4.5-4.5h83c2.5,0,4.5,2,4.5,4.5l0,0
	C127,136,125,138,122.5,138z"/>
<path class="st3" d="M122.5,151h-83c-2.5,0-4.5-2-4.5-4.5l0,0c0-2.5,2-4.5,4.5-4.5h83c2.5,0,4.5,2,4.5,4.5l0,0
	C127,149,125,151,122.5,151z"/>
<path class="st3" d="M119.7,74.6H44.3c-4.6,0-8.3-3.7-8.3-8.3v-28c0-4.6,3.7-8.3,8.3-8.3h75.3c4.6,0,8.3,3.7,8.3,8.3v28
	C128,70.9,124.3,74.6,119.7,74.6z"/>
</svg>
