<?xml version="1.0" encoding="utf-8"?>
<!-- Generator: Adobe Illustrator 22.0.0, SVG Export Plug-In . SVG Version: 6.00 Build 0)  -->
<svg version="1.1" id="Layer_1" xmlns="http://www.w3.org/2000/svg" xmlns:xlink="http://www.w3.org/1999/xlink" x="0px" y="0px"
	 viewBox="0 0 512 512" style="enable-background:new 0 0 512 512;" xml:space="preserve">
<style type="text/css">
	.st0{fill:#5D5C61;}
	.st1{fill:#D6E5F6;}
	.st2{fill:none;stroke:#FFFFFF;stroke-width:17;stroke-linecap:round;stroke-miterlimit:10;}
</style>
<path class="st0" d="M505.2,472.3L346.5,313.6c25.9-33,41.4-74.5,41.4-119.6C387.9,87,300.9,0,193.9,0h0
	C142.1,0,93.4,20.2,56.8,56.8C20.2,93.4,0,142.1,0,193.9c0,106.9,87,193.9,193.9,193.9c45.1,0,86.7-15.5,119.6-41.4l158.7,158.7
	c4.5,4.5,10.5,6.8,16.5,6.8s11.9-2.3,16.5-6.8C514.3,496.1,514.3,481.4,505.2,472.3z M46.5,193.9c0-39.4,15.3-76.4,43.2-104.2
	s64.9-43.2,104.2-43.2c81.3,0,147.4,66.1,147.4,147.4c0,81.3-66.1,147.4-147.4,147.4C112.7,341.3,46.5,275.2,46.5,193.9z"/>
<circle class="st1" cx="193.9" cy="193.9" r="170.7"/>
<path class="st2" d="M43,203c0-85.7,59.9-155,134-155"/>
</svg>
