<?xml version="1.0" encoding="utf-8"?>
<!-- Generator: Adobe Illustrator 22.0.0, SVG Export Plug-In . SVG Version: 6.00 Build 0)  -->
<svg version="1.1" id="Layer_1" xmlns="http://www.w3.org/2000/svg" xmlns:xlink="http://www.w3.org/1999/xlink" x="0px" y="0px"
	 viewBox="0 0 599 596" style="enable-background:new 0 0 599 596;" xml:space="preserve">
<style type="text/css">
	.st0{fill:url(#SVGID_1_);}
	.st1{fill:#FFFFFF;}
	.st2{fill:none;stroke:#FFFFFF;stroke-width:10;stroke-miterlimit:10;}
</style>
<linearGradient id="SVGID_1_" gradientUnits="userSpaceOnUse" x1="0" y1="3325.9998" x2="599" y2="3325.9998" gradientTransform="matrix(1 0 0 1 0 -3027.9998)">
	<stop  offset="0" style="stop-color:#E92F8B"/>
	<stop  offset="0.76" style="stop-color:#E64848"/>
	<stop  offset="1" style="stop-color:#E64848"/>
</linearGradient>
<ellipse class="st0" cx="299.5" cy="298" rx="299.5" ry="298"/>
<g>
	<path class="st1" d="M298.4,52.5l214.9,121l2.6,246.4L303.6,545.5l-214.9-121l-2.6-246.4L298.4,52.5 M298.2,41L76,172.4l2.8,258
		l225,126.6L526,425.6l-2.8-258L298.2,41L298.2,41z"/>
</g>
<line class="st2" x1="81.8" y1="170.9" x2="131.4" y2="319.7"/>
<line class="st2" x1="131.4" y1="319.7" x2="81.8" y2="427.1"/>
<line class="st2" x1="296.9" y1="46.9" x2="131.4" y2="319.7"/>
<line class="st2" x1="131.4" y1="319.7" x2="305.1" y2="551.1"/>
<line class="st2" x1="296.9" y1="46.9" x2="454" y2="228.7"/>
<line class="st2" x1="520.2" y1="170.9" x2="454" y2="228.7"/>
<line class="st2" x1="454" y1="228.7" x2="520.2" y2="418.8"/>
<line class="st2" x1="520.2" y1="418.8" x2="379.6" y2="435.4"/>
<line class="st2" x1="305.1" y1="551.1" x2="379.6" y2="435.4"/>
<line class="st2" x1="454" y1="228.7" x2="379.6" y2="435.4"/>
<line class="st2" x1="131.4" y1="319.7" x2="454" y2="228.7"/>
<line class="st2" x1="379.6" y1="435.4" x2="131.4" y2="319.7"/>
</svg>
