<?xml version="1.0" encoding="utf-8"?>
<!-- Generator: Adobe Illustrator 22.0.0, SVG Export Plug-In . SVG Version: 6.00 Build 0)  -->
<svg version="1.1" id="Layer_1" xmlns="http://www.w3.org/2000/svg" xmlns:xlink="http://www.w3.org/1999/xlink" x="0px" y="0px"
	 viewBox="0 0 599 596" style="enable-background:new 0 0 599 596;" xml:space="preserve">
<style type="text/css">
	.st0{fill:#39A0ED;}
	.st1{fill:#F2F3F4;}
</style>
<ellipse class="st0" cx="299.5" cy="298" rx="299.5" ry="298"/>
<path class="st1" d="M335.1,437.3H256c-5.5,0-9.9,4.3-9.9,9.5c0,5.3,4.4,9.5,9.9,9.5h79.2c5.5,0,9.9-4.3,9.9-9.5
	C345,441.6,340.6,437.3,335.1,437.3z M335.1,475.4H256c-5.5,0-9.9,4.3-9.9,9.5c0,5.3,4.4,9.5,9.9,9.5h79.2c5.5,0,9.9-4.3,9.9-9.5
	C345,479.7,340.6,475.4,335.1,475.4z M340.1,513.6H251l23.5,14.9c3,2.6,7.5,4.2,12.2,4.2h17.7c4.6,0,9.1-1.5,12.2-4.2L340.1,513.6z
	 M414.3,250.3c0,68.1-63.6,114.2-63.6,167.9h-39.4c-0.1-35.5,17.2-64.7,34.1-92.9c15.1-25.3,29.3-49.2,29.3-75
	c0-49.5-41.1-72-79.2-72c-38.1,0-79.1,22.5-79.1,72c0,25.9,14.3,49.7,29.3,75c16.8,28.2,34.1,57.4,34,92.9h-39.3
	c0-53.7-63.6-99.8-63.6-167.9c0-71,59.3-110.1,118.7-110.1C354.9,140.1,414.3,179.3,414.3,250.3z M493.4,237.1v26.2h-50.2
	c0.4-4.3,0.8-8.5,0.8-13c0-4.5-0.3-8.9-0.7-13.2L493.4,237.1L493.4,237.1z M282.7,112.1V74.7h27.1v37.5c-4.8-0.4-9.6-0.7-14.4-0.7
	C291.2,111.5,287,111.7,282.7,112.1z M208.6,136.7l-20.6-37L212,87.4l20.5,36.9C224.2,127.7,216.2,131.9,208.6,136.7z M418.1,169.9
	l38.4-26.6l15.8,21.3l-40.6,28.1C428,184.4,423.4,176.9,418.1,169.9z M358.6,124.3l20.5-36.9L403,99.7l-20.6,37
	C374.9,131.9,366.9,127.7,358.6,124.3z M159.3,192.6l-40.6-28.1l15.8-21.3l38.4,26.6C167.7,176.8,163.1,184.4,159.3,192.6z
	 M430.6,311.4l46.6,18.2L467,353.8l-48-18.7C423.2,327.5,427.1,319.6,430.6,311.4z M171.2,333.4l-46.6,20.2l-11.1-23.9l46.3-20.1
	C163.2,318,167.1,325.8,171.2,333.4z M147.9,263.3H97.6v-26.2h50.2c-0.4,4.3-0.7,8.7-0.7,13.2C147.1,254.7,147.5,259,147.9,263.3z"
	/>
</svg>
