<?xml version="1.0" encoding="utf-8"?>
<!-- Generator: Adobe Illustrator 22.0.0, SVG Export Plug-In . SVG Version: 6.00 Build 0)  -->
<svg version="1.1" id="Layer_1" xmlns="http://www.w3.org/2000/svg" xmlns:xlink="http://www.w3.org/1999/xlink" x="0px" y="0px"
	 viewBox="0 0 132 132" style="enable-background:new 0 0 132 132;" xml:space="preserve">
<style type="text/css">
	.st0{fill:url(#SVGID_1_);}
	.st1{fill:url(#SVGID_2_);}
	.st2{fill:#FFFFFF;}
</style>
<radialGradient id="SVGID_1_" cx="57.3826" cy="75.6875" r="20.6648" gradientTransform="matrix(6.2157 0 0 6.5265 -366.1471 -397.286)" gradientUnits="userSpaceOnUse">
	<stop  offset="0" style="stop-color:#FFDD55"/>
	<stop  offset="0.1" style="stop-color:#FFDD55"/>
	<stop  offset="0.5" style="stop-color:#FF543E"/>
	<stop  offset="1" style="stop-color:#C837AB"/>
</radialGradient>
<circle class="st0" cx="65.8" cy="66.1" r="65.3"/>
<radialGradient id="SVGID_2_" cx="60.4087" cy="60.0141" r="10.3772" gradientTransform="matrix(6.87 0 0 7.2516 -414.8466 -437.17)" gradientUnits="userSpaceOnUse">
	<stop  offset="0" style="stop-color:#3771C8"/>
	<stop  offset="0.128" style="stop-color:#3771C8"/>
	<stop  offset="1" style="stop-color:#6600FF;stop-opacity:0"/>
</radialGradient>
<circle class="st1" cx="65.8" cy="66.1" r="65.3"/>
<path class="st2" d="M65.8,26.9c-11,0-12.3,0-16.7,0.2C44.9,27.4,42,28,39.4,29c-2.7,1-4.9,2.3-7.2,4.5c-2.2,2.2-3.6,4.4-4.7,6.9
	c-1,2.5-1.7,5.3-1.9,9.5c-0.2,4.2-0.2,5.5-0.2,16.1c0,10.6,0,12,0.2,16.1c0.2,4.2,0.9,7,1.9,9.5c1,2.6,2.4,4.8,4.7,6.9
	c2.2,2.2,4.5,3.5,7.2,4.5c2.6,1,5.5,1.6,9.8,1.8c4.3,0.2,5.7,0.2,16.7,0.2c11,0,12.3,0,16.7-0.2c4.3-0.2,7.2-0.9,9.8-1.8
	c2.7-1,4.9-2.3,7.2-4.5c2.2-2.2,3.6-4.4,4.7-6.9c1-2.5,1.7-5.3,1.9-9.5c0.2-4.2,0.2-5.5,0.2-16.1s-0.1-12-0.2-16.1
	c-0.2-4.2-0.9-7-1.9-9.5c-1-2.6-2.4-4.8-4.7-6.9C97.2,31.3,95,30,92.3,29c-2.6-1-5.5-1.6-9.8-1.8C78.2,27,76.8,26.9,65.8,26.9
	L65.8,26.9z M62.2,34c1.1,0,2.3,0,3.6,0c10.8,0,12.1,0,16.3,0.2c3.9,0.2,6.1,0.8,7.5,1.3c1.9,0.7,3.2,1.6,4.6,2.9
	c1.4,1.4,2.3,2.7,3,4.5c0.6,1.4,1.2,3.5,1.4,7.3c0.2,4.1,0.2,5.4,0.2,15.8s0,11.7-0.2,15.8c-0.2,3.8-0.8,5.9-1.4,7.3
	c-0.7,1.8-1.6,3.1-3,4.5c-1.4,1.4-2.8,2.2-4.6,2.9c-1.4,0.5-3.6,1.2-7.5,1.3c-4.3,0.2-5.5,0.2-16.3,0.2c-10.8,0-12.1,0-16.3-0.2
	c-3.9-0.2-6.1-0.8-7.5-1.4c-1.9-0.7-3.2-1.6-4.6-2.9c-1.4-1.4-2.3-2.7-3-4.5c-0.6-1.4-1.2-3.5-1.4-7.3c-0.2-4.1-0.2-5.4-0.2-15.8
	s0-11.7,0.2-15.8c0.2-3.8,0.8-5.9,1.4-7.3c0.7-1.8,1.6-3.1,3-4.5c1.4-1.4,2.8-2.2,4.6-2.9c1.4-0.5,3.6-1.2,7.5-1.4
	C53.2,34,54.7,34,62.2,34L62.2,34z M87.4,40.5c-2.7,0-4.8,2.1-4.8,4.7c0,2.6,2.2,4.7,4.8,4.7s4.8-2.1,4.8-4.7S90.1,40.5,87.4,40.5
	L87.4,40.5z M65.8,46c-11.5,0-20.7,9-20.7,20.1c0,11.1,9.3,20.1,20.7,20.1c11.5,0,20.7-9,20.7-20.1S77.3,46,65.8,46L65.8,46z
	 M65.8,53c7.4,0,13.5,5.8,13.5,13.1c0,7.2-6,13.1-13.5,13.1c-7.4,0-13.5-5.8-13.5-13.1C52.4,58.9,58.4,53,65.8,53z"/>
</svg>
