<?xml version="1.0" encoding="utf-8"?>
<!-- Generator: Adobe Illustrator 22.0.0, SVG Export Plug-In . SVG Version: 6.00 Build 0)  -->
<svg version="1.1" id="Layer_1" xmlns="http://www.w3.org/2000/svg" xmlns:xlink="http://www.w3.org/1999/xlink" x="0px" y="0px"
	 viewBox="0 0 512 512" style="enable-background:new 0 0 512 512;" xml:space="preserve">
<style type="text/css">
	.st0{fill:#070606;}
	.st1{fill:#FFFFFF;}
</style>
<g>
	<path class="st0" d="M255,508.5c-67.4,0-130.9-26.3-178.5-74c-47.7-47.7-74-111.1-74-178.5s26.3-130.9,74-178.5s111.1-74,178.5-74
		s130.9,26.3,178.5,74c47.7,47.7,74,111.1,74,178.5s-26.3,130.9-74,178.5C385.9,482.2,322.4,508.5,255,508.5z"/>
	<path d="M255,4c34,0,67,6.7,98.1,19.8c30,12.7,57,30.9,80.1,54c23.1,23.1,41.3,50.1,54,80.1C500.3,189,507,222,507,256
		s-6.7,67-19.8,98.1c-12.7,30-30.9,57-54,80.1c-23.1,23.1-50.1,41.3-80.1,54C322,501.3,289,508,255,508s-67-6.7-98.1-19.8
		c-30-12.7-57-30.9-80.1-54c-23.1-23.1-41.3-50.1-54-80.1C9.7,323,3,290,3,256s6.7-67,19.8-98.1c12.7-30,30.9-57,54-80.1
		c23.1-23.1,50.1-41.3,80.1-54C188,10.7,221,4,255,4 M255,3C115.3,3,2,116.3,2,256s113.3,253,253,253s253-113.3,253-253
		S394.7,3,255,3L255,3z"/>
</g>
<path class="st1" d="M131,169.3c0-3.9-1.9-8.8-4.8-10.8l-29.9-37.2v-5.9h94.6L263.2,278l64.7-162.5h89.8v5.9l-26.1,25.5
	c-1.9,1-2.9,3.9-2.9,6.9v186c0,2.9,1,5.9,2.9,7.8l26.1,24.5v5.9H289.3v-5.9l26.1-25.5c2.9-2.9,2.9-3.9,2.9-7.8V188.9l-73.4,188h-9.7
	l-84.9-188v126.3c-1,4.9,1,10.8,4.8,14.7l33.8,42.1v4.9H92.4v-4.9l33.8-42.1c3.9-3.9,5.8-9.8,4.8-14.7V169.3z"/>
</svg>
