<?xml version="1.0" encoding="utf-8"?>
<!-- Generator: Adobe Illustrator 22.0.0, SVG Export Plug-In . SVG Version: 6.00 Build 0)  -->
<svg version="1.1" id="Layer_1" xmlns="http://www.w3.org/2000/svg" xmlns:xlink="http://www.w3.org/1999/xlink" x="0px" y="0px"
	 viewBox="0 0 548 752" style="enable-background:new 0 0 548 752;" xml:space="preserve">
<style type="text/css">
	.st0{fill:#999999;}
	.st1{fill:#4D4D4D;}
	.st2{fill:#8D8D8E;}
	.st3{fill:#FF6663;}
	.st4{fill:#39A0ED;}
</style>
<path class="st0" d="M362.1,29.9c-1,1.4-18,50.1-37.6,107.7c-43.9,128.9-73.3,220.8-87.7,274.4c-2.1,7.7-5.7,22.8-5.6,23.1
	c0.1,0.2,2.6,0.1,5.9,0c3.1-0.2,10.3-0.1,15.9,0.1c14.7,0.7,24.3,2.1,39.6,5.9c4.1,1,7.4,1.7,7.4,1.6c0.2-0.5,2.3-9.2,4.2-16.8
	c13.6-58.6,36.2-194.4,61.6-370.3c1.9-12.9,3.3-24.2,3-25c-0.3-1.3-0.5-1.7-1.9-2.2C365,27.6,363.4,28.1,362.1,29.9z"/>
<path class="st1" d="M230.7,440.8c-1.7,17.8-3.8,34.7-8.3,67.8c-3.8,27.8-5.7,43.8-5.2,44c0.1,0,1.7-0.3,3.5-0.6
	c9.9-1.9,23.2-0.5,31.9,3.6c1.8,0.9,3.6,1.6,3.9,1.6c0.6,0,5.8-13.5,15.8-41.7c10.5-29.7,17-47.4,22.5-61.2
	c4.9-12.4,4.8-11.9,3.2-12.3c-0.7-0.2-3.9-1-7.2-1.9c-18.3-4.7-37.9-6.7-54.3-5.4c-2.5,0.2-4.6,0.3-4.7,0.4S230.9,437.7,230.7,440.8
	z"/>
<g>
	
		<image style="overflow:visible;opacity:0.75;enable-background:new    ;" width="200" height="448" xlink:href="F0FDB314169E78EE.png"  transform="matrix(1 0 0 1 193 32)">
	</image>
	<g>
		<path class="st2" d="M201.9,44.6c-0.1,1.7,11.6,52,25.8,111.1c31.8,132.4,56.1,225.8,72.6,278.8c2.3,7.6,7.4,22.3,7.6,22.5
			c0.2,0.1,2.3-1.3,5-3.2c2.5-1.8,8.6-5.6,13.5-8.4c12.8-7.3,21.7-11.2,36.6-16.2c4-1.3,7.2-2.5,7.1-2.6c-0.1-0.5-3-9-5.4-16.4
			c-19.8-56.8-73.4-183.6-146-345.8c-5.3-11.9-10.2-22.2-10.8-22.7c-0.9-0.9-1.3-1.2-2.8-0.8C203.1,41.1,202,42.4,201.9,44.6z"/>
	</g>
</g>
<g>
	
		<image style="overflow:visible;opacity:0.75;enable-background:new    ;" width="117" height="168" xlink:href="F0FDB314169E78E9.png"  transform="matrix(1 0 0 1 300 418)">
	</image>
	<g>
		<path class="st1" d="M310.6,462.1c8.1,16,15.3,31.4,29.2,61.7c11.7,25.5,18.6,40.1,19.1,40c0.1-0.1,1.3-1.2,2.6-2.4
			c7.3-6.9,19.3-12.8,28.9-14c2-0.2,3.9-0.6,4.2-0.7c0.5-0.3-2.3-14.5-8.9-43.7c-7-30.7-11-49.1-13.7-63.7
			c-2.5-13.1-2.3-12.6-3.9-12.1c-0.7,0.2-3.8,1.2-7.1,2.2c-18,5.8-35.6,14.6-48.8,24.5c-2,1.5-3.7,2.7-3.8,2.9
			C308.4,456.8,309.1,459.4,310.6,462.1z"/>
	</g>
</g>
<path class="st3" d="M407.6,548.8c8.5,6.6,14.5,16.6,17,28.1c1,4.3,1.4,11.6,0.9,16c-1.7,14.5-1.9,20.6-1.4,28.4
	c0.4,7.3,1.6,13.5,3.9,19.9c4.1,11.8,10.8,21.3,22.7,31.7c3,2.6,4,3.7,4.2,4.7c0.4,1.7-0.2,3.3-1.8,3.8l-1.2,0.5l-16.1-9
	c-8.8-5-18.6-10.7-21.7-12.7c-36.6-22.8-55.3-41.9-62.2-62.9c-3.4-10.3-3.4-19.3-0.1-29.6c3.6-11.1,9.2-18.2,18.4-23.2
	c6.3-3.5,15.3-4.6,22.9-2.8C397.7,542.9,403.7,545.8,407.6,548.8z"/>
<path class="st4" d="M266.4,567.7c2.9,10.4,1.9,21.9-2.8,32.8c-1.7,4-5.7,10.2-8.7,13.4c-9.9,10.8-13.7,15.5-17.9,22.1
	c-4,6.1-6.7,11.8-8.6,18.4c-3.7,12-3.8,23.5-0.3,39c0.9,3.8,1,5.4,0.7,6.3c-0.7,1.6-2.1,2.5-3.7,2.1l-1.3-0.3l-7.7-16.8
	c-4.2-9.2-8.8-19.6-10.1-23c-16.1-40-20-66.5-13.2-87.4c3.3-10.3,8.7-17.6,17.4-24c9.4-6.9,18.1-9.3,28.5-8
	c7.2,0.9,15.1,5.3,20.1,11.2C261.9,557.1,265,563,266.4,567.7z"/>
</svg>
