<?xml version="1.0" encoding="utf-8"?>
<!-- Generator: Adobe Illustrator 22.0.0, SVG Export Plug-In . SVG Version: 6.00 Build 0)  -->
<svg version="1.1" id="Layer_1" xmlns="http://www.w3.org/2000/svg" xmlns:xlink="http://www.w3.org/1999/xlink" x="0px" y="0px"
	 viewBox="0 0 24 24" style="enable-background:new 0 0 24 24;" xml:space="preserve">
<style type="text/css">
	.st0{fill:#E4B363;}
</style>
<path class="st0" d="M2.5,18c1,0,1.3-0.5,1.7-0.9C5,16.3,6,16.6,6,17.9V24h6.1c1.3,0,1.7-1,0.8-1.8c-0.4-0.4-0.9-0.7-0.9-1.7
	c0-1.1,1.1-2.5,3-2.5s3,1.4,3,2.5c0,1-0.5,1.3-0.9,1.7C16.3,23,16.6,24,17.9,24H24v-6.1c0-1.3-1-1.7-1.8-0.8
	c-0.4,0.4-0.7,0.9-1.7,0.9c-1.1,0-2.5-1.1-2.5-3s1.4-3,2.5-3c1,0,1.3,0.5,1.7,0.9c0.8,0.8,1.8,0.5,1.8-0.8V6h-6.1
	c-1.3,0-1.7-1-0.8-1.8C17.5,3.8,18,3.5,18,2.5C18,1.4,16.9,0,15,0s-3,1.4-3,2.5c0,1,0.5,1.3,0.9,1.7C13.7,5,13.4,6,12.1,6H6v6.1
	c0,1.3-1,1.7-1.8,0.8C3.8,12.5,3.5,12,2.5,12C1.4,12,0,13.1,0,15S1.4,18,2.5,18z"/>
</svg>
