<?xml version="1.0" encoding="utf-8"?>
<!-- Generator: Adobe Illustrator 22.0.0, SVG Export Plug-In . SVG Version: 6.00 Build 0)  -->
<svg version="1.1"
	 id="Слой_1" inkscape:version="0.91 r13725" sodipodi:docname="YouTube_social_red_circle_(2017).svg" xmlns:cc="http://creativecommons.org/ns#" xmlns:dc="http://purl.org/dc/elements/1.1/" xmlns:inkscape="http://www.inkscape.org/namespaces/inkscape" xmlns:rdf="http://www.w3.org/1999/02/22-rdf-syntax-ns#" xmlns:sodipodi="http://sodipodi.sourceforge.net/DTD/sodipodi-0.dtd" xmlns:svg="http://www.w3.org/2000/svg"
	 xmlns="http://www.w3.org/2000/svg" xmlns:xlink="http://www.w3.org/1999/xlink" x="0px" y="0px" viewBox="0 0 300 300"
	 style="enable-background:new 0 0 300 300;" xml:space="preserve">
<style type="text/css">
	.st0{fill:#D32E52;}
	.st1{fill:#FFFFFF;}
</style>
<sodipodi:namedview  bordercolor="#666666" borderopacity="1" fit-margin-bottom="0" fit-margin-left="0" fit-margin-right="0" fit-margin-top="0" gridtolerance="10" guidetolerance="10" id="namedview13" inkscape:current-layer="Слой_1" inkscape:cx="186.0629" inkscape:cy="115.41015" inkscape:pageopacity="0" inkscape:pageshadow="2" inkscape:window-height="715" inkscape:window-maximized="1" inkscape:window-width="1366" inkscape:window-x="-8" inkscape:window-y="-8" inkscape:zoom="1.18" objecttolerance="10" pagecolor="#ffffff" showgrid="false">
	</sodipodi:namedview>
<g id="g5355">
	<path id="rect4" class="st0" d="M150,0L150,0c82.8,0,150,67.2,150,150l0,0c0,82.8-67.2,150-150,150l0,0C67.2,300,0,232.8,0,150l0,0
		C0,67.2,67.2,0,150,0z"/>
	<g id="g4167" transform="matrix(5.9026317,0,0,5.9026317,521.39665,-711.31763)">
		<path id="path4156" inkscape:connector-curvature="0" class="st1" d="M-62.9,133.9c0,0-10.7,0-13.4,0.7c-1.4,0.4-2.6,1.6-3,3
			c-0.7,2.7-0.7,8.3-0.7,8.3s0,5.6,0.7,8.2c0.4,1.5,1.6,2.6,3,3c2.7,0.7,13.4,0.7,13.4,0.7s10.7,0,13.4-0.7c1.5-0.4,2.6-1.5,3-3
			c0.7-2.7,0.7-8.2,0.7-8.2s0-5.6-0.7-8.3c-0.4-1.5-1.5-2.6-3-3C-52.2,133.9-62.9,133.9-62.9,133.9z M-66.3,140.8l8.9,5.1l-8.9,5.1
			V140.8L-66.3,140.8z"/>
	</g>
</g>
</svg>
